<svg width="36" height="36" viewBox="0 0 36 36" fill="none" xmlns="http://www.w3.org/2000/svg">
<path d="M35.9875 17.5168C35.8972 14.2323 34.9094 11.0351 33.1314 8.27194C31.3534 5.50875 28.8529 3.28496 25.9011 1.84163C22.9492 0.398303 19.6586 -0.209496 16.3859 0.0841208C13.1132 0.377738 9.98327 1.56157 7.33547 3.50728C4.68766 5.453 2.62298 8.08636 1.36522 11.1219C0.107458 14.1575 -0.295382 17.4794 0.200364 20.7276C0.69611 23.9758 2.07153 27.0263 4.17752 29.5485C6.28352 32.0706 9.03973 33.9682 12.1474 35.0356H12.1589C15.54 36.1903 19.188 36.3142 22.6396 35.3915C26.0913 34.4688 29.1908 32.5411 31.5446 29.8532C31.6423 29.7412 31.7399 29.6277 31.8318 29.5143C34.634 26.1559 36.112 21.889 35.9875 17.5168ZM15.8594 10.2236C16.5185 10.0479 17.1977 9.9586 17.8798 9.95795C19.9 9.95886 21.8392 10.7524 23.2805 12.1679C23.3825 12.2655 23.473 12.3574 23.5563 12.4551C23.6395 12.5527 23.6999 12.613 23.7702 12.6949C23.9634 12.9233 24.1428 13.163 24.3073 13.4129C24.7898 14.1284 25.1481 14.9202 25.367 15.7549C25.3684 15.7678 25.3684 15.7808 25.367 15.7937C25.367 16.3422 22.7191 17.7768 18.1771 18.983C13.5231 20.2193 10.473 20.261 10.3366 19.7455C10.1163 18.9218 10.0339 18.0673 10.0925 17.2167C10.1148 16.879 10.1599 16.5432 10.2275 16.2116C10.2418 16.1426 10.2562 16.068 10.272 16.0048C10.3007 15.8741 10.3309 15.7578 10.3625 15.6444C10.731 14.3422 11.4314 13.1581 12.3949 12.2079C13.3585 11.2577 14.5523 10.574 15.8594 10.2236ZM9.82398 18.522C9.83259 18.6082 9.84264 18.6943 9.8527 18.7819C9.86275 18.8695 9.87711 18.9542 9.89147 19.0404C9.93455 19.3003 9.98911 19.5573 10.0566 19.8158C10.3223 20.8109 14.3832 20.2897 18.2575 19.2615C22.1318 18.2334 25.9141 16.6682 25.6514 15.6716C25.6255 15.5726 25.5968 15.4749 25.5666 15.3844C25.548 15.3198 25.5264 15.2552 25.5049 15.1935L25.4661 15.0757C25.436 14.9924 25.4058 14.9106 25.3728 14.8287C25.3728 14.8158 25.3627 14.8014 25.357 14.7871C25.3283 14.7124 25.2995 14.6435 25.2665 14.5645C25.2536 14.5344 25.2407 14.5013 25.2263 14.4712C25.1502 14.2989 25.0669 14.1294 24.9793 13.9628C24.9377 13.8853 24.896 13.8092 24.8529 13.7345L24.8443 13.7202C24.807 13.6555 24.7697 13.5924 24.7309 13.5292C24.718 13.5091 24.705 13.4904 24.6936 13.4703C27.1606 13.4258 28.7531 13.8796 28.9713 14.6981C29.4021 16.3135 24.6835 19.0303 18.6725 20.6271C12.6615 22.2239 7.21911 22.2067 6.78831 20.5884C6.57579 19.7857 7.69442 18.624 9.79095 17.4608V17.4695C9.79095 17.5571 9.79095 17.6446 9.79095 17.7322C9.78858 17.9959 9.7996 18.2595 9.82398 18.522ZM8.52729 6.89074C9.02557 8.0395 9.43052 8.44732 10.5836 8.9456C9.43483 9.44387 9.02557 9.84738 8.52729 11.0005C8.03044 9.85169 7.62549 9.44387 6.4724 8.9456C7.62549 8.45019 8.03331 8.04668 8.52729 6.89074ZM8.29035 29.2429C7.96438 28.4905 7.70016 28.2262 6.94771 27.9003C7.70016 27.5743 7.96438 27.3115 8.29035 26.5577C8.61488 27.3115 8.8791 27.5743 9.63299 27.9003C8.8791 28.2262 8.61488 28.4905 8.29035 29.2429ZM4.05708 21.7989C3.6507 20.2681 5.89513 18.1429 9.93024 16.2216C9.8747 16.5127 9.83492 16.8065 9.81105 17.1019C7.41584 18.3942 6.24408 19.6607 6.5083 20.6515C6.7639 21.6136 8.37507 22.1004 10.7588 22.1004C11.9879 22.089 13.2145 21.9887 14.4292 21.8003C15.8858 21.5814 17.3288 21.2803 18.7515 20.8985C25.1272 19.2027 29.7425 16.4399 29.2571 14.609C28.9886 13.6039 27.3042 13.0912 24.5083 13.1731C24.35 12.9403 24.1784 12.7168 23.9942 12.5039L23.9713 12.4738C28.4946 12.1162 31.5417 12.8442 31.9524 14.3922C31.9841 14.5092 32 14.6299 31.9998 14.7512C31.9998 16.2144 29.8559 18.1415 26.243 19.8891C23.9691 20.9661 21.5988 21.8267 19.1636 22.4594C16.9666 23.0508 14.7246 23.4605 12.4604 23.6843C7.77196 24.1108 4.47495 23.3727 4.05708 21.7989ZM31.3407 29.5861C29.0182 32.2365 25.9641 34.1413 22.5621 35.0611C19.1602 35.9809 15.5623 35.8746 12.2206 34.7556L12.6083 23.9557C14.8459 23.7289 17.0615 23.3226 19.234 22.7409C21.6423 22.111 23.9884 21.2632 26.243 20.2078L31.5561 29.3276C31.49 29.4138 31.4197 29.4999 31.345 29.5861H31.3407ZM32.9045 19.5344C32.6288 18.8968 32.4048 18.6728 31.7672 18.3971C32.4048 18.1228 32.6288 17.8988 32.9045 17.2612C33.1788 17.8988 33.4028 18.1228 34.0403 18.3971C33.4071 18.6656 33.1831 18.8939 32.9088 19.5272L32.9045 19.5344Z" fill="white"/>
</svg>
